<svg width="30px" height="30px" viewBox="0 0 30 30" xmlns="http://www.w3.org/2000/svg">
<path style=" stroke:none;fill-rule:nonzero;fill:rgb(0%,0%,0%);fill-opacity:1;" d="M 29.441406 15 C 29.441406 22.976562 22.976562 29.441406 15 29.441406 C 7.023438 29.441406 0.558594 22.976562 0.558594 15 C 0.558594 7.023438 7.023438 0.558594 15 0.558594 C 22.976562 0.558594 29.441406 7.023438 29.441406 15 Z M 29.441406 15 "/>
<path style=" stroke:none;fill-rule:nonzero;fill:rgb(100%,100%,100%);fill-opacity:1;" d="M 22.5 7.5 L 7.5 7.5 C 6.46875 7.5 5.625 8.34375 5.625 9.375 L 5.625 20.625 C 5.625 21.65625 6.46875 22.5 7.5 22.5 L 22.5 22.5 C 23.53125 22.5 24.375 21.65625 24.375 20.625 L 24.375 9.375 C 24.375 8.34375 23.53125 7.5 22.5 7.5 Z M 22.5 20.625 L 20.625 20.625 L 20.625 12.375 L 15 15.9375 L 9.375 12.375 L 9.375 20.625 L 7.5 20.625 L 7.5 9.375 L 8.625 9.375 L 15 13.3125 L 21.375 9.375 L 22.5 9.375 Z M 22.5 20.625 "/>
</svg>
